<?xml version="1.0" standalone="no"?>
<!DOCTYPE svg PUBLIC "-//W3C//DTD SVG 20010904//EN"
 "http://www.w3.org/TR/2001/REC-SVG-20010904/DTD/svg10.dtd">
<svg version="1.0" xmlns="http://www.w3.org/2000/svg"
 width="701.000000pt" height="701.000000pt" viewBox="0 0 701.000000 701.000000"
 preserveAspectRatio="xMidYMid meet">
<metadata>
Created by potrace 1.11, written by Peter Selinger 2001-2013
</metadata>
<g transform="translate(0.000000,701.000000) scale(0.100000,-0.100000)"
fill="#000000" stroke="none">
<path d="M1755 6524 c-957 -266 -1742 -484 -1744 -484 -8 0 9 -448 24 -635
148 -1843 870 -3519 1933 -4489 441 -402 914 -689 1427 -866 l114 -39 98 33
c703 238 1365 708 1886 1341 908 1103 1457 2715 1513 4436 7 207 6 217 -12
223 -77 23 -3486 966 -3492 965 -4 -1 -790 -219 -1747 -485z m2105 -178 c179
-47 705 -184 1170 -306 465 -122 970 -255 1123 -295 153 -40 279 -74 281 -76
8 -9 -14 -507 -29 -674 -103 -1155 -477 -2181 -1093 -3000 -331 -440 -764
-842 -1192 -1107 -210 -130 -545 -288 -611 -288 -55 0 -353 137 -540 248 -481
286 -906 673 -1269 1157 -704 938 -1091 2152 -1112 3489 l-3 179 435 114 c239
62 755 196 1145 298 391 102 852 223 1025 269 173 46 322 82 330 80 8 -2 161
-42 340 -88z"/>
<path d="M1920 4080 l0 -1160 415 0 415 0 0 -409 c0 -266 4 -412 10 -416 6 -4
532 -3 1170 1 l1160 7 0 1153 0 1154 -412 2 -413 3 -3 413 -2 412 -1170 0
-1170 0 0 -1160z m2055 605 l0 -270 -610 0 -610 0 -3 -602 -2 -603 -270 0
-270 0 0 875 0 875 883 -2 882 -3 0 -270z m5 -1015 l0 -460 -470 0 -470 0 0
460 0 460 470 0 470 0 0 -460z m830 -415 l0 -875 -882 2 -883 3 -3 268 -2 267
610 0 610 0 0 605 0 605 275 0 275 0 0 -875z"/>
</g>
</svg>
